<?xml version="1.0" encoding="UTF-8"?>
<svg width="26px" height="28px" viewBox="0 0 26 28" version="1.1" xmlns="http://www.w3.org/2000/svg" xmlns:xlink="http://www.w3.org/1999/xlink">
    <title>icon_tabbar_picture_nor</title>
    <g id="icon_tabbar_nor" stroke="none" stroke-width="1" fill="none" fill-rule="evenodd">
        <g id="icon_tabbar_picture_nor" transform="translate(1.509364, 0.641010)" fill="#111D16">
            <path d="M23.0178454,23.8634444 C22.7921345,23.8634444 22.2542155,23.4572804 22.2542155,22.9559738 L22.2542155,3.22975518 C22.2542155,2.72956139 21.8800778,2.32228458 21.4209786,2.32228458 L5.36990754,2.32228458 C4.69277457,2.32228458 4.3201723,1.99234585 4.3201723,1.49103928 C4.3201723,0.989732717 4.69277457,0.584125073 5.36990754,0.584125073 L21.3513716,0.584125073 C22.7296929,0.584125073 23.8505706,1.80428634 23.8505706,3.30486771 L23.8505706,22.9559738 C23.8505706,23.4572804 23.4779683,23.8634444 23.0178454,23.8634444 Z M20.2995891,6.00716879 L20.2995891,24.8846978 C20.2995891,25.8591446 19.311882,26.6569628 18.4014826,26.6569628 L0.850609665,26.6569628 C-0.261705135,26.6569628 -1.00629995,25.8591446 -1.00629995,24.8846978 L-1.00629995,6.00716879 C-1.00629995,5.03217852 -0.261705135,4.30881617 0.850609665,4.30881617 L18.2636512,4.30881617 C19.1740506,4.30881617 20.2995891,5.03217852 20.2995891,6.00716879 Z M0.769190799,24.7946172 L18.5240983,24.7946172 L18.5240983,6.17116172 L0.769190799,6.17116172 L0.769190799,24.7946172 Z M11.3919154,21.3785139 C11.1158447,21.7601483 10.6147712,21.8323645 10.2578006,21.5418334 L7.34692274,18.799287 L3.96581446,22.5611919 C3.80350912,22.7700631 3.57243892,22.9322717 3.64575441,22.9322717 C3.15125405,22.9322717 2.96063377,22.8056157 3.20586145,22.6589614 C2.46057154,22.4934198 2.42062724,21.9268009 2.71641733,21.3824024 L6.1455599,16.9799961 C6.4266869,16.6189154 6.91259164,16.558365 7.26046102,16.8416744 L10.5996025,19.8158679 L16.0021959,12.0992967 C16.2853454,11.7082186 16.8036101,11.6443351 17.1585582,11.9548645 C17.9599724,12.2665048 17.5731699,12.8364567 17.2895148,13.2275349 L11.3919154,21.3785139 Z M6.35535846,12.6893711 C5.51806198,12.6893711 5.20791768,11.5647713 5.20791768,10.6395067 C5.20791768,9.80723086 5.51806198,8.96468005 6.35535846,8.96468005 C7.44784875,8.96468005 7.87115381,9.80723086 7.87115381,10.6395067 C7.87115381,11.5647713 7.44784875,12.6893711 6.35535846,12.6893711 Z" id="形状"></path>
        </g>
    </g>
</svg>