<?xml version="1.0" encoding="UTF-8"?>
<svg width="24px" height="28px" viewBox="0 0 24 28" version="1.1" xmlns="http://www.w3.org/2000/svg" xmlns:xlink="http://www.w3.org/1999/xlink">
    <title>icon_tabbar_shopping_sel</title>
    <g id="icon_tabbar_sel" stroke="none" stroke-width="1" fill="none" fill-rule="evenodd">
        <g id="icon_tabbar_shopping_sel" transform="translate(1.019215, 0.547003)" fill="#FFFFFF">
            <path d="M20.4729558,27.0102457 L1.98478057,27.0102457 C0.694943335,27.0102457 -0.360100835,25.8716736 -0.360100835,24.4802072 L-0.360100835,9.91195843 C-0.360100835,8.52049197 0.694943335,7.38246728 1.98478057,7.38246728 L4.61121037,7.38246728 L4.61121037,9.16696006 L1.98478057,9.16696006 C1.61022973,9.16696006 1.29412304,9.5079843 1.29412304,9.91195843 L1.29412304,24.4802072 C1.29412304,24.8841813 1.61022973,25.2252056 1.98478057,25.2252056 L20.4729558,25.2252056 C21.1219401,25.2252056 21.1636134,24.8841813 21.1636134,24.4802072 L21.1636134,9.91195843 C21.1636134,9.5079843 21.1219401,9.16696006 20.4729558,9.16696006 L17.846526,9.16696006 L17.846526,7.38246728 L20.4729558,7.38246728 C21.7627931,7.38246728 22.8178372,8.52049197 22.8178372,9.91195843 L22.8178372,24.4802072 C22.8178372,25.8716736 21.7627931,27.0102457 20.4729558,27.0102457 Z M13.9032457,9.25177951 L8.55449074,9.25177951 L8.55449074,7.38246728 L13.9032457,7.38246728 L13.9032457,9.25177951 Z M15.7631888,15.7943723 C14.8208762,15.7943723 14.0572953,14.9375442 14.0572953,13.8798622 C14.0572953,13.1081606 14.4658955,12.4471789 15.0517379,12.1439508 L15.0517379,5.65820707 C15.0517379,3.48609218 13.3880448,1.7190233 11.4537721,1.7190233 C9.5185064,1.7190233 7.49536435,3.48609218 7.49536435,5.65820707 L7.49536435,12.1984762 C8.03155905,12.5211777 8.40044115,13.1487764 8.40044115,13.8798622 C8.40044115,14.9375442 7.63686017,15.7943723 6.69454763,15.7943723 C5.80585455,15.7943723 4.98865411,14.9375442 4.98865411,13.8798622 C4.98865411,13.155453 5.35108201,12.5328617 5.87933309,12.2073783 L5.87933309,5.65820707 C5.87933309,2.48571754 8.62733094,-0.0947816579 11.4537721,-0.0947816579 C14.2792203,-0.0947816579 16.6682656,2.48571754 16.6682656,5.65820707 L16.6682656,12.2619037 C17.147862,12.6007403 17.4690823,13.2517071 17.4690823,13.8798622 C17.4690823,14.9375442 17.0361547,15.7943723 15.7631888,15.7943723 Z" id="形状"></path>
        </g>
    </g>
</svg>