<?xml version="1.0" encoding="UTF-8"?>
<svg width="25px" height="23px" viewBox="0 0 25 23" version="1.1" xmlns="http://www.w3.org/2000/svg" xmlns:xlink="http://www.w3.org/1999/xlink">
    <title>icon_tabbar_heart_sel</title>
    <g id="icon_tabbar_sel" stroke="none" stroke-width="1" fill="none" fill-rule="evenodd">
        <g id="icon_tabbar_heart_sel" transform="translate(0.934139, 0.582642)" fill="#FFFFFF">
            <path d="M13.4997186,0.946049564 C12.8301687,1.13291667 12.2297765,1.65335549 11.5612511,2.12861152 C11.5612511,2.12861152 11.5182196,2.09179591 11.4782617,2.05107562 C10.1617021,0.700054365 8.49064476,0.00278906121 6.80114531,0.00278906121 C5.63724515,0.00278906121 4.46412394,0.333571721 3.39192189,1.00908235 C0.927342799,2.56091601 -0.384606289,5.62051616 0.0994983139,8.67342256 C0.377666355,10.4277421 1.16196704,11.8774961 2.29564269,13.1214174 C4.43748538,15.4714804 8.14075752,19.5262176 10.1806565,21.7574665 C10.5833086,22.1970226 11.1099324,22.4173584 11.6365563,22.4173584 C12.1621555,22.4173584 12.6882671,22.1981382 13.0904069,21.7596978 C15.1846076,19.4765723 19.4570228,15.3599179 21.2602484,12.7621863 C22.8278252,11.0006152 23.5112067,8.82458968 23.19513,6.63015632 C22.7120499,2.57486131 19.6706435,0 16.6036232,0 C15.4591896,0 14.453584,0.734080912 13.4997186,0.946049564 Z" id="形状"></path>
        </g>
    </g>
</svg>