<?xml version="1.0" encoding="UTF-8"?>
<svg width="26px" height="29px" viewBox="0 0 26 29" version="1.1" xmlns="http://www.w3.org/2000/svg" xmlns:xlink="http://www.w3.org/1999/xlink">
    <title>icon_tabbar_person_sel</title>
    <g id="icon_tabbar_sel" stroke="none" stroke-width="1" fill="none" fill-rule="evenodd">
        <g id="icon_tabbar_person_sel" transform="translate(0.208267, 0.000000)" fill="#FFFFFF">
            <path d="M22.3662551,28.3208979 L13.5455223,28.3208979 L10.7067742,28.3208979 L2.42547801,28.3208979 C1.08781422,28.3208979 0,27.4184555 0,25.9442657 L0,25.7365564 C0,23.9524425 1.17623017,22.6646446 2.05740936,22.080872 L6.99529118,19.8775132 C7.41452186,19.7107991 7.87845724,19.9513047 8.02945977,20.4153711 C8.18046229,20.8783443 7.96240272,21.388872 7.54168188,21.5550394 L2.60330335,23.7578516 C2.08721249,23.9622814 1.61681977,24.6991029 1.61681977,25.7365564 L1.61681977,25.9442657 C1.61681977,26.4356623 1.97942451,26.5384238 2.42547801,26.5384238 L10.7067742,26.5384238 L13.5455223,26.5384238 L22.3662551,26.5384238 C22.8123086,26.5384238 23.1749134,26.4356623 23.1749134,25.9442657 L23.1749134,25.7365564 C23.1749134,24.6991029 22.7045207,23.9622814 22.1884298,23.7583982 L16.7106146,21.5550394 C16.4602683,21.388872 16.0718342,20.8783443 16.2228367,20.4153711 C16.3738393,19.9513047 16.8362845,19.7107991 17.2570053,19.8775132 L22.783499,22.080872 C23.8882016,22.6646446 24.7917331,23.9524425 24.7917331,25.7365564 L24.7917331,25.9442657 C24.7917331,27.4184555 23.7039189,28.3208979 22.3662551,28.3208979 Z M12.1795025,19.8246285 C8.14756002,19.8246285 5.31251425,15.3868309 5.31251425,9.91231426 C5.31251425,4.63156141 8.14756002,0 12.1795025,0 C16.2109436,0 19.4792189,4.63156141 19.4792189,9.91231426 C19.4792189,15.3868309 16.2109436,19.8246285 12.1795025,19.8246285 Z M11.9531571,1.88805986 C8.77945894,1.88805986 6.19793329,5.48806729 6.19793329,9.91258728 C6.19793329,14.6270517 8.77945894,17.9365687 11.9531571,17.9365687 C15.126346,17.9365687 17.7083808,14.6270517 17.7083808,9.91258728 C17.7083808,5.48806729 15.126346,1.88805986 11.9531571,1.88805986 Z" id="形状"></path>
        </g>
    </g>
</svg>