<?xml version="1.0" encoding="UTF-8"?>
<svg width="23px" height="28px" viewBox="0 0 23 28" version="1.1" xmlns="http://www.w3.org/2000/svg" xmlns:xlink="http://www.w3.org/1999/xlink">
    <title>icon_tabbar_music_sel</title>
    <g id="icon_tabbar_sel" stroke="none" stroke-width="1" fill="none" fill-rule="evenodd">
        <g id="icon_tabbar_music_sel" transform="translate(0.000000, 0.641010)" fill="#FFFFFF">
            <path d="M21.5470669,1.03906283 C21.2193298,0.74269543 21.013671,0.583615868 20.5922224,0.583615868 C20.8297938,0.583615868 20.3830177,0.593422143 20.2786687,0.613034691 L8.44467528,2.88809034 C7.43107111,3.05207304 6.87032157,3.86000109 6.87032157,4.80412739 L6.87032157,6.4652013 L6.84752687,6.4652013 L6.84752687,18.4642676 C6.13633234,17.8737119 5.17946163,17.5179621 4.21397959,17.5179621 C1.88993363,17.5179621 0,19.5543984 0,22.0577223 C0,24.5610462 1.88993363,26.5974825 4.21397959,26.5974825 C6.42911755,26.5974825 8.2466147,24.7451863 8.41174961,22.4031211 L8.42795917,22.4031211 L8.42795917,9.90665881 L20.5430872,7.56786237 L20.5430872,16.7617894 C19.8318926,16.1712337 19.1500779,15.8160287 18.1840893,15.8160287 C15.8605499,15.8160287 13.9701097,17.852465 13.9701097,20.3552441 C13.9701097,23.0743061 15.8605499,24.8950043 18.1840893,24.8950043 C20.3997338,24.8950043 22.3848987,23.0427081 22.175694,21.1130512 L22.1919036,21.1130512 L22.1919036,7.25460639 L22.1919036,4.14601742 L22.1919036,2.52961653 C22.1919036,1.9543151 21.9558518,1.4084325 21.5470669,1.03906283 Z M4.4128598,24.7393492 C2.95608482,24.7393492 1.77535228,23.4913738 1.77535228,21.9521492 C1.77535228,20.4129246 2.95608482,19.1649492 4.4128598,19.1649492 C5.86911396,19.1649492 7.10140914,20.4129246 7.10140914,21.9521492 C7.10140914,23.4913738 5.86911396,24.7393492 4.4128598,24.7393492 Z M17.7532599,22.8812159 C16.2827696,22.8812159 15.0904944,21.63379 15.0904944,20.0940159 C15.0904944,18.5547913 16.2827696,17.3068159 17.7532599,17.3068159 C19.2242761,17.3068159 20.4165513,18.5547913 20.4165513,20.0940159 C20.4165513,21.63379 19.2242761,22.8812159 17.7532599,22.8812159 Z M20.1386776,5.74839035 L7.98908528,8.0161492 L7.98908528,4.81588367 C7.98908528,4.73596965 8.0440493,4.66822796 8.11987928,4.6539387 L19.9534285,2.44386613 C19.9625892,2.44227843 19.9717499,2.4417492 19.9809105,2.4417492 C20.0180621,2.4417492 20.1366419,2.45550923 20.4165513,2.48038313 C20.1183206,2.51160782 20.1386776,2.55712176 20.1386776,2.60634033 L20.1386776,4.17657149 L20.1386776,5.74839035 Z" id="形状"></path>
        </g>
    </g>
</svg>