<?xml version="1.0" encoding="UTF-8"?>
<svg width="25px" height="23px" viewBox="0 0 25 23" version="1.1" xmlns="http://www.w3.org/2000/svg" xmlns:xlink="http://www.w3.org/1999/xlink">
    <title>icon_tabbar_heart_nor</title>
    <g id="icon_tabbar_nor" stroke="none" stroke-width="1" fill="none" fill-rule="evenodd">
        <g id="icon_tabbar_heart_nor" transform="translate(1.528823, 1.017035)" fill="#111D16">
            <path d="M20.8241636,6.18882577 C21.0632201,8.07162312 20.5861201,9.65851258 19.7590454,11.0401577 C16.9126527,13.9458396 12.2034427,19.0074219 11.3074874,19.9924836 C11.2158153,20.0937153 11.1109749,20.1148516 11.0395618,20.1148516 C10.9681488,20.1148516 10.8633083,20.0931591 10.7716363,19.9919274 C8.75485049,17.7681685 5.09455146,14.0459588 2.97799,11.3833441 C2.02682886,10.3309799 1.46767982,9.20185775 1.26812844,7.93145622 C0.910556676,5.65763774 1.89362578,3.35267105 3.71389902,2.19629419 C4.49640379,1.69903545 5.37665836,1.43650063 6.25893882,1.43650063 C7.54589327,1.43650063 8.7857455,1.98604385 10.1917217,2.98334242 C10.175008,3.42386694 10.5974087,3.55735922 10.9539675,3.55735922 C11.4128343,3.55735922 12.0859404,3.33598452 11.8676494,3.26089511 C12.0925246,3.09959194 12.3103091,2.93328281 12.5255612,2.76919855 C12.9125085,2.47384688 13.5699138,2.19462553 13.6241067,2.00273038 C14.7348077,1.62505848 15.0371736,1.43371954 15.9503491,1.43371954 C18.3915614,1.43371954 20.4807732,3.47782007 20.8241636,6.18882577 Z M12.9050348,0.511655906 C12.2354848,0.698523007 11.6350927,1.21896183 10.9665673,1.69421786 C10.9665673,1.69421786 10.9235358,1.65740225 10.8835779,1.61668196 C9.56701831,0.265660707 7.89596094,-0.431604597 6.20646149,-0.431604597 C5.04256133,-0.431604597 3.86944012,-0.100821937 2.79723807,0.574688689 C0.332658979,2.12652235 -0.979290108,5.1861225 -0.495185505,8.23902891 C-0.217017464,9.99334841 0.567283221,11.4431024 1.70095887,12.6870237 C3.84280156,15.0370867 7.5460737,19.0918239 9.58597267,21.3230729 C9.98862475,21.7626289 10.5152486,21.9829648 11.0418724,21.9829648 C11.5674717,21.9829648 12.0935833,21.7637445 12.4957231,21.3253041 C14.5899237,19.0421786 18.862339,14.9255243 20.6655646,12.3277926 C22.2331414,10.5662216 22.9165229,8.39019602 22.6004461,6.19576266 C22.1173661,2.14046765 19.0759597,-0.434393658 16.0089393,-0.434393658 C14.8645058,-0.434393658 13.8589002,0.299687254 12.9050348,0.511655906 Z" id="形状"></path>
        </g>
    </g>
</svg>